<svg width="37" height="33" viewBox="0 0 37 33" fill="none" xmlns="http://www.w3.org/2000/svg">
<path fill-rule="evenodd" clip-rule="evenodd" d="M13.449 32.7005H15.7587V32.6638L17.8063 29.0636C17.8303 29.0232 17.8641 28.9897 17.9047 28.9661C17.9452 28.9426 17.9911 28.9298 18.0379 28.9291C18.085 28.9286 18.1313 28.9408 18.1721 28.9645C18.2128 28.9882 18.2465 29.0224 18.2695 29.0636L20.311 32.6638V32.7005H22.6695C21.6335 30.879 20.5995 29.0595 19.5676 27.2421V27.2055H19.5066C19.3565 26.9681 19.149 26.7727 18.9034 26.6373C18.6578 26.5019 18.3821 26.4309 18.1019 26.4309C17.8217 26.4309 17.546 26.5019 17.3004 26.6373C17.0548 26.7727 16.8473 26.9681 16.6972 27.2055H16.6362V27.2421C15.5393 29.0595 14.4768 30.879 13.449 32.7005ZM4.45388 32.7005H5.84946L4.63062 30.555C4.51214 30.342 4.44994 30.1021 4.44994 29.8582C4.44994 29.6143 4.51214 29.3744 4.63062 29.1614L5.24004 27.9756C5.36345 27.7568 5.53979 27.5727 5.75279 27.4403C5.9658 27.3078 6.20862 27.2313 6.45888 27.2177H9.09159C9.34185 27.2313 9.58467 27.3078 9.79768 27.4403C10.0107 27.5727 10.187 27.7568 10.3104 27.9756L10.5115 28.324C10.599 28.4787 10.6452 28.6535 10.6456 28.8313C10.6464 28.9632 10.6211 29.0939 10.5712 29.2159C10.5212 29.3379 10.4477 29.4487 10.3547 29.542C10.2617 29.6352 10.1512 29.709 10.0296 29.7591C9.90797 29.8092 9.77764 29.8346 9.64616 29.8338C9.49443 29.8205 9.34781 29.7723 9.21777 29.6927C9.08773 29.6132 8.97779 29.5046 8.89657 29.3753C8.82635 29.2546 8.72583 29.1544 8.60502 29.0847C8.4842 29.015 8.3473 28.9782 8.20793 28.978H7.47053C7.32952 28.9778 7.19095 29.0149 7.06892 29.0858C6.94689 29.1566 6.84575 29.2587 6.77578 29.3815L6.73922 29.4426C6.67786 29.5583 6.64577 29.6874 6.64577 29.8185C6.64577 29.9496 6.67786 30.0787 6.73922 30.1944L7.41568 31.4169C7.48436 31.5412 7.58506 31.6448 7.70726 31.7168C7.82945 31.7889 7.96868 31.8267 8.11042 31.8264H11.2611C11.3982 31.8258 11.5328 31.7902 11.6523 31.7228C11.7717 31.6554 11.872 31.5585 11.9437 31.4413L12.7725 29.9805C12.873 29.762 12.9249 29.5242 12.9249 29.2837C12.926 29.0344 12.8719 28.7881 12.7664 28.5624L9.05502 22.0588C8.93657 21.8447 8.87441 21.6039 8.87441 21.359C8.87441 21.1141 8.93657 20.8732 9.05502 20.6591L9.7071 19.5222C9.83052 19.3034 10.0069 19.1193 10.2199 18.9869C10.4329 18.8544 10.6757 18.7779 10.9259 18.7643H13.5891C13.8394 18.7779 14.0822 18.8544 14.2952 18.9869C14.5082 19.1193 14.6846 19.3034 14.808 19.5222L15.0091 19.8767C15.0974 20.0289 15.1437 20.2019 15.1431 20.3779C15.1397 20.5913 15.0686 20.798 14.94 20.9679C14.8114 21.1379 14.632 21.2623 14.4281 21.3229C14.2241 21.3836 14.0062 21.3775 13.806 21.3053C13.6058 21.2332 13.4337 21.0989 13.3149 20.9219C13.2447 20.8012 13.1441 20.701 13.0233 20.6313C12.9025 20.5616 12.7656 20.5248 12.6262 20.5246H11.9437C11.8013 20.5251 11.6615 20.5633 11.5385 20.6351C11.4155 20.707 11.3135 20.8102 11.2428 20.9342V20.9892C11.181 21.1036 11.1486 21.2318 11.1486 21.362C11.1486 21.4922 11.181 21.6204 11.2428 21.7349L12.0899 23.263C12.1591 23.3869 12.2599 23.4901 12.382 23.5621C12.5041 23.6341 12.6431 23.6722 12.7847 23.6725H15.9049C16.0436 23.6724 16.1799 23.6363 16.3005 23.5677C16.4212 23.4992 16.5221 23.4005 16.5936 23.2813L17.7698 21.2153C17.779 21.1587 17.779 21.1009 17.7698 21.0442C17.7712 20.9653 17.7523 20.8874 17.7149 20.818L13.7719 13.7705C13.6637 13.5363 13.6117 13.28 13.6202 13.022C13.6287 12.764 13.6973 12.5117 13.8207 12.2852L16.5692 7.45024C16.7061 7.16741 16.9195 6.92893 17.1852 6.76207C17.4509 6.59522 17.758 6.50673 18.0714 6.50673C18.3849 6.50673 18.692 6.59522 18.9576 6.76207C19.2233 6.92893 19.4368 7.16741 19.5736 7.45024L22.3039 12.279C22.4232 12.5069 22.4896 12.7589 22.498 13.0161C22.5065 13.2733 22.4568 13.5291 22.3526 13.7644L18.3731 20.7875C18.3338 20.8564 18.3129 20.9343 18.3121 21.0136C18.3149 21.0723 18.3273 21.1301 18.3487 21.1848L19.5249 23.2507C19.5963 23.37 19.6973 23.4686 19.8179 23.5372C19.9386 23.6057 20.0749 23.6418 20.2135 23.6419H23.413C23.5555 23.6421 23.6955 23.6042 23.8187 23.5323C23.9418 23.4603 24.0437 23.3568 24.1138 23.2324L24.9609 21.7043C25.0228 21.5898 25.0552 21.4617 25.0552 21.3315C25.0552 21.2012 25.0228 21.0731 24.9609 20.9586V20.9036C24.8923 20.7792 24.7916 20.6757 24.6694 20.6036C24.5472 20.5316 24.4079 20.4938 24.2662 20.4941H23.4861C23.3468 20.4942 23.2099 20.531 23.089 20.6007C22.9682 20.6704 22.8677 20.7706 22.7975 20.8914C22.7079 21.0338 22.5837 21.1511 22.4367 21.2323C22.2896 21.3136 22.1244 21.3561 21.9565 21.3559C21.8229 21.3567 21.6905 21.3308 21.567 21.2798C21.4435 21.2287 21.3313 21.1534 21.2372 21.0584C21.143 20.9634 21.0686 20.8505 21.0184 20.7263C20.9682 20.6021 20.9432 20.4691 20.9448 20.3351C20.9443 20.1591 20.9906 19.9861 21.0789 19.8339L21.28 19.4794C21.4062 19.2564 21.5873 19.0695 21.806 18.9368C22.0248 18.8041 22.2738 18.73 22.5293 18.7215H25.1681C25.4184 18.7351 25.6612 18.8116 25.8742 18.9441C26.0872 19.0765 26.2636 19.2606 26.387 19.4794L27.0391 20.6163C27.1575 20.8304 27.2197 21.0713 27.2197 21.3162C27.2197 21.5611 27.1575 21.8019 27.0391 22.016L23.3643 28.5624C23.2588 28.7881 23.2047 29.0344 23.2058 29.2837C23.2026 29.5246 23.2548 29.763 23.3582 29.9805L24.187 31.4413C24.2584 31.5605 24.3594 31.6592 24.48 31.7277C24.6007 31.7963 24.7369 31.8324 24.8756 31.8325H28.0263C28.1681 31.8328 28.3073 31.795 28.4295 31.723C28.5517 31.6509 28.6524 31.5473 28.7211 31.423L29.3975 30.2005C29.4589 30.0848 29.491 29.9557 29.491 29.8246C29.491 29.6935 29.4589 29.5644 29.3975 29.4487L29.361 29.3876C29.291 29.2648 29.1899 29.1628 29.0678 29.0919C28.9458 29.021 28.8072 28.9839 28.6662 28.9841H27.9471C27.8076 28.9837 27.6705 29.0202 27.5495 29.09C27.4286 29.1597 27.3282 29.2603 27.2585 29.3815C27.1685 29.5231 27.0442 29.6395 26.8971 29.7197C26.7499 29.7999 26.5849 29.8413 26.4175 29.8399C26.286 29.8407 26.1557 29.8153 26.034 29.7652C25.9124 29.7151 25.8019 29.6413 25.7089 29.5481C25.616 29.4548 25.5424 29.344 25.4924 29.222C25.4425 29.1 25.4172 28.9693 25.418 28.8375C25.4184 28.6596 25.4646 28.4848 25.5521 28.3301L25.7532 27.9817C25.8766 27.7629 26.0529 27.5788 26.2659 27.4464C26.4789 27.3139 26.7218 27.2374 26.972 27.2238H29.6169C29.8672 27.2374 30.11 27.3139 30.323 27.4464C30.536 27.5788 30.7124 27.7629 30.8358 27.9817L31.4818 29.1186C31.6002 29.3316 31.6624 29.5715 31.6624 29.8154C31.6624 30.0594 31.6002 30.2992 31.4818 30.5122L30.2629 32.6577H31.7133C35.2785 32.6577 37.1981 29.1797 35.4247 26.1113L21.8102 2.45032C20.0307 -0.642543 16.0634 -0.569194 14.2961 2.49922L0.657184 26.203C-1.12842 29.2959 0.919235 32.7005 4.45388 32.7005ZM15.7769 12.8658L17.8246 9.26561C17.8485 9.22522 17.8824 9.19166 17.9229 9.16812C17.9635 9.14458 18.0093 9.13185 18.0562 9.13114C18.1033 9.13062 18.1496 9.14283 18.1904 9.16649C18.2311 9.19015 18.2648 9.22439 18.2878 9.26561L20.3293 12.8658C20.3652 12.927 20.3842 12.9966 20.3842 13.0675C20.3842 13.1385 20.3652 13.2081 20.3293 13.2693L18.2695 16.8939C18.2449 16.9276 18.2128 16.9551 18.1758 16.9741C18.1388 16.9932 18.0978 17.0034 18.0562 17.0039C18.0146 17.0034 17.9736 16.9932 17.9366 16.9741C17.8996 16.9551 17.8675 16.9276 17.8429 16.8939L15.7769 13.2693C15.741 13.2081 15.7221 13.1385 15.7221 13.0675C15.7221 12.9966 15.741 12.927 15.7769 12.8658Z" fill="url(#paint0_linear_216_802)"/>
<defs>
<linearGradient id="paint0_linear_216_802" x1="-4.67832e-07" y1="32.9998" x2="36" y2="-0.000244639" gradientUnits="userSpaceOnUse">
<stop stop-color="#FF0000"/>
<stop offset="1" stop-color="#850000"/>
</linearGradient>
</defs>
</svg>
